<svg xmlns="http://www.w3.org/2000/svg" viewBox="0 0 64 80" x="0px" y="0px"><title>computer-plan</title><g><path d="M59,5H5A3,3,0,0,0,2,8V44a3,3,0,0,0,3,3H26.531L24.9,54H24a1,1,0,0,0-.707.293l-2,2A1,1,0,0,0,22,58H42a1,1,0,0,0,.707-1.707l-2-2A1,1,0,0,0,40,54h-.9l-1.635-7H59a3,3,0,0,0,3-3V8A3,3,0,0,0,59,5ZM5,7H59a1,1,0,0,1,1,1V39H4V8A1,1,0,0,1,5,7ZM37.338,55.228a1,1,0,0,0,.974.772H25.688a1,1,0,0,0,.974-.772L28.585,47h6.83ZM59,45H5a1,1,0,0,1-1-1V41H60v3A1,1,0,0,1,59,45Z"/><rect x="31" y="42" width="3" height="2"/><rect x="51" y="8" width="8" height="2"/><rect x="46" y="8" width="4" height="2"/><rect x="43" y="8" width="2" height="2"/><rect x="50" y="11" width="9" height="2"/><rect x="43" y="11" width="6" height="2"/><rect x="43" y="14" width="6" height="2"/><rect x="50" y="14" width="4" height="2"/><rect x="55" y="14" width="4" height="2"/><rect x="43" y="17" width="16" height="2"/><rect x="13" y="27" width="8" height="2"/><rect x="8" y="27" width="4" height="2"/><rect x="5" y="27" width="2" height="2"/><rect x="12" y="30" width="9" height="2"/><rect x="5" y="30" width="6" height="2"/><rect x="5" y="33" width="6" height="2"/><rect x="12" y="33" width="4" height="2"/><rect x="17" y="33" width="4" height="2"/><rect x="5" y="36" width="16" height="2"/><path d="M13,21a1,1,0,0,0-1,1v4h2V23h8.2a10,10,0,1,0,19.747,1H52a1,1,0,0,0,1-1V20H51v2H41.539a10,10,0,0,0-18.7-1Zm27,4H33V17.069A8.008,8.008,0,0,1,40,25Zm-9-7.931V26a1,1,0,0,0,1,1h7.737A8,8,0,1,1,31,17.069Z"/><path d="M8,16H20a1,1,0,0,0,1-1V11a1,1,0,0,0-1-1H8a1,1,0,0,0-1,1v4A1,1,0,0,0,8,16Zm1-4H19v2H9Z"/><path d="M56,30H44a1,1,0,0,0-1,1v4a1,1,0,0,0,1,1H56a1,1,0,0,0,1-1V31A1,1,0,0,0,56,30Zm-1,4H45V32H55Z"/></g><text x="0" y="79" fill="#000000" font-size="5px" font-weight="bold" font-family="'Helvetica Neue', Helvetica, Arial-Unicode, Arial, Sans-serif">Created by Phonlaphat Thongsriphong</text><text x="0" y="84" fill="#000000" font-size="5px" font-weight="bold" font-family="'Helvetica Neue', Helvetica, Arial-Unicode, Arial, Sans-serif">from the Noun Project</text></svg>