<svg xmlns:x="http://ns.adobe.com/Extensibility/1.0/" xmlns:i="http://ns.adobe.com/AdobeIllustrator/10.0/" xmlns:graph="http://ns.adobe.com/Graphs/1.0/" xmlns="http://www.w3.org/2000/svg" xmlns:xlink="http://www.w3.org/1999/xlink" xmlns:a="http://ns.adobe.com/AdobeSVGViewerExtensions/3.0/" version="1.1" x="0px" y="0px" viewBox="0 0 100 125" enable-background="new 0 0 100 100" xml:space="preserve"><path d="M69.679,47.822l18.46-18.457c0.33-0.331,0.523-0.766,0.567-1.227c0.443-0.044,0.876-0.227,1.215-0.567  c4.823-4.823,4.823-12.67,0-17.493c-2.336-2.338-5.442-3.625-8.747-3.625s-6.411,1.288-8.747,3.625  c-0.347,0.347-0.53,0.79-0.569,1.242c-0.452,0.042-0.891,0.217-1.218,0.545L52.183,30.326L26.438,4.581  c-0.75-0.752-2.079-0.75-2.829,0L4.585,23.613c-0.781,0.781-0.781,2.047,0,2.828l25.74,25.745L13.638,68.874  c-0.205,0.205-0.363,0.451-0.462,0.723L7.011,86.331c-1.25,3.383-0.118,5.208,0.668,5.994c0.533,0.534,1.544,1.227,3.197,1.227  c0.782,0,1.708-0.155,2.794-0.557l16.695-6.15c0.277-0.095,0.538-0.253,0.759-0.474c0,0,0,0,0,0  c0.001-0.001,0.002-0.002,0.002-0.002l16.692-16.689l25.741,25.741c0.375,0.375,0.884,0.586,1.414,0.586  c0.531,0,1.04-0.211,1.415-0.586l19.027-19.032c0.781-0.781,0.781-2.047,0-2.828L69.679,47.822z M81.175,10.454  c2.235,0,4.337,0.871,5.918,2.453c3.263,3.264,3.263,8.573,0,11.837c-0.13,0.13-0.231,0.277-0.317,0.43l-11.949-11.95  c0.153-0.087,0.3-0.188,0.43-0.318C76.837,11.325,78.939,10.454,81.175,10.454z M28.675,44.877l5.146-5.147  c0.781-0.781,0.781-2.048,0-2.829c-0.781-0.78-2.047-0.781-2.829,0l-5.145,5.147l-6.933-6.934l5.143-5.143  c0.781-0.781,0.781-2.047,0-2.828c-0.781-0.781-2.048-0.781-2.828,0l-5.143,5.143l-7.258-7.259L25.025,8.823l24.33,24.331  L33.153,49.357L28.675,44.877z M29.712,82.125l-6.58-6.581c-0.78-0.781-2.048-0.781-2.828,0c-0.781,0.781-0.781,2.047,0,2.828  l5.784,5.785l-13.802,5.085c-1.145,0.422-1.703,0.301-1.768,0.265c-0.056-0.086-0.178-0.644,0.246-1.792c0,0,0-0.001,0-0.002  l6.013-16.322L34.53,53.637c0.013-0.012,0.028-0.021,0.041-0.033s0.021-0.028,0.033-0.041L53.515,34.65  c0.029-0.026,0.062-0.045,0.09-0.074c0.028-0.028,0.047-0.061,0.074-0.09l18.375-18.377l11.841,11.842L46.473,65.368  c-0.024,0.022-0.052,0.038-0.076,0.062s-0.04,0.051-0.062,0.075L29.712,82.125z M74.973,91.177l-7.263-7.262l5.146-5.146  c0.781-0.781,0.781-2.047,0-2.828c-0.78-0.781-2.048-0.781-2.828,0l-5.146,5.146l-6.931-6.932l5.147-5.147  c0.781-0.781,0.781-2.047,0-2.828c-0.78-0.781-2.048-0.781-2.828,0l-5.147,5.147l-4.477-4.476l16.204-16.201l24.321,24.324  L74.973,91.177z"/><text x="0" y="115" fill="#000000" font-size="5px" font-weight="bold" font-family="'Helvetica Neue', Helvetica, Arial-Unicode, Arial, Sans-serif">Created by Lemon Liu</text><text x="0" y="120" fill="#000000" font-size="5px" font-weight="bold" font-family="'Helvetica Neue', Helvetica, Arial-Unicode, Arial, Sans-serif">from the Noun Project</text></svg>