<svg xmlns="http://www.w3.org/2000/svg" xmlns:xlink="http://www.w3.org/1999/xlink" x="0" y="0" version="1.1" viewBox="0 0 100 125" xml:space="preserve" style="enable-background:new 0 0 100 100"><switch><g><g><path d="M5273.1,2400.1v-2c0-2.8-5-4-9.7-4s-9.7,1.3-9.7,4v2c0,1.8,0.7,3.6,2,4.9l5,4.9c0.3,0.3,0.4,0.6,0.4,1v6.4 c0,0.4,0.2,0.7,0.6,0.8l2.9,0.9c0.5,0.1,1-0.2,1-0.8v-7.2c0-0.4,0.2-0.7,0.4-1l5.1-5C5272.4,2403.7,5273.1,2401.9,5273.1,2400.1z M5263.4,2400c-4.8,0-7.4-1.3-7.5-1.8v0c0.1-0.5,2.7-1.8,7.5-1.8c4.8,0,7.3,1.3,7.5,1.8C5270.7,2398.7,5268.2,2400,5263.4,2400z"/><path d="M5268.4,2410.3c-0.6,0-1,0.4-1,1c0,0.6,0.4,1,1,1h4.3c0.6,0,1-0.4,1-1c0-0.6-0.4-1-1-1H5268.4z"/><path d="M5272.7,2413.7h-4.3c-0.6,0-1,0.4-1,1c0,0.6,0.4,1,1,1h4.3c0.6,0,1-0.4,1-1C5273.7,2414.1,5273.3,2413.7,5272.7,2413.7z"/><path d="M5272.7,2417h-4.3c-0.6,0-1,0.4-1,1c0,0.6,0.4,1,1,1h4.3c0.6,0,1-0.4,1-1C5273.7,2417.5,5273.3,2417,5272.7,2417z"/></g><g><path d="M42.8,64.7c0.6,0.3,1.3,0.6,1.9,0.8c0.2,0.1,0.3,0.2,0.4,0.5l0.6,5.8c0.1,0.9,0.9,1.6,1.8,1.6h5c0.9,0,1.7-0.7,1.8-1.6 l0.6-5.8c0-0.2,0.2-0.4,0.4-0.5c0.7-0.2,1.3-0.5,1.9-0.8c0.2-0.1,0.4-0.1,0.6,0.1l4.6,3.7c0.7,0.6,1.8,0.5,2.5-0.1l3.6-3.6 c0.7-0.7,0.7-1.7,0.1-2.5l-3.7-4.6c-0.1-0.2-0.2-0.4-0.1-0.6c0.3-0.6,0.6-1.3,0.8-1.9c0.1-0.2,0.2-0.3,0.5-0.4l5.8-0.6 c0.9-0.1,1.6-0.9,1.6-1.8v-5c0-0.9-0.7-1.7-1.6-1.8L66,45.1c-0.2,0-0.4-0.2-0.5-0.4c-0.2-0.7-0.5-1.3-0.8-1.9 c-0.1-0.2-0.1-0.4,0.1-0.6l3.7-4.6c0.6-0.7,0.5-1.8-0.1-2.5l-3.6-3.6c-0.7-0.7-1.7-0.7-2.5-0.1l-4.6,3.7 c-0.2,0.1-0.4,0.2-0.6,0.1c-0.6-0.3-1.3-0.6-1.9-0.8c-0.2-0.1-0.3-0.2-0.4-0.5l-0.6-5.8c-0.1-0.9-0.9-1.6-1.8-1.6h-5 c-0.9,0-1.7,0.7-1.8,1.6L45.1,34c0,0.2-0.2,0.4-0.4,0.5c-0.7,0.2-1.3,0.5-1.9,0.8c-0.2,0.1-0.4,0.1-0.6-0.1l-4.6-3.7 c-0.7-0.6-1.8-0.5-2.5,0.1l-3.6,3.6c-0.7,0.7-0.7,1.7-0.1,2.5l3.7,4.6c0.1,0.2,0.2,0.4,0.1,0.6c-0.3,0.6-0.6,1.3-0.8,1.9 c-0.1,0.2-0.2,0.3-0.5,0.4l-5.8,0.6c-0.9,0.1-1.6,0.9-1.6,1.8v5c0,0.9,0.7,1.7,1.6,1.8l5.8,0.6c0.2,0,0.4,0.2,0.5,0.4 c0.2,0.7,0.5,1.3,0.8,1.9c0.1,0.2,0.1,0.4-0.1,0.6l-3.7,4.6c-0.6,0.7-0.5,1.8,0.1,2.5l3.6,3.6c0.7,0.7,1.7,0.7,2.5,0.1l4.6-3.7 C42.4,64.7,42.6,64.6,42.8,64.7z M50,41.3c4.8,0,8.7,3.9,8.7,8.7s-3.9,8.7-8.7,8.7s-8.7-3.9-8.7-8.7S45.2,41.3,50,41.3z"/><path d="M14.5,50c0-19.6,15.9-35.5,35.5-35.5h0.7l-2.9,2.9c-1,1-1,2.5,0,3.5c0.5,0.5,1.1,0.7,1.7,0.7s1.3-0.2,1.7-0.7l7.1-7.1 c1-1,1-2.5,0-3.5l-7.1-7.1c-1-1-2.5-1-3.5,0c-1,1-1,2.5,0,3.5l2.9,2.9H50C27.7,9.6,9.6,27.7,9.6,50c0,12.9,6.2,25.1,16.6,32.6 c0.4,0.3,0.9,0.5,1.4,0.5c0.8,0,1.5-0.3,2-1c0.8-1.1,0.6-2.6-0.5-3.4C20,72,14.5,61.3,14.5,50z"/><path d="M90.4,50c0-12.9-6.2-25.1-16.6-32.6c-1.1-0.8-2.6-0.6-3.4,0.5c-0.8,1.1-0.6,2.6,0.5,3.4C80,28,85.5,38.7,85.5,50 c0,19.6-15.9,35.5-35.5,35.5h-0.7l2.9-2.9c1-1,1-2.5,0-3.5c-1-1-2.5-1-3.5,0l-7.1,7.1c-1,1-1,2.5,0,3.5l7.1,7.1 c0.5,0.5,1.1,0.7,1.7,0.7c0.6,0,1.3-0.2,1.7-0.7c1-1,1-2.5,0-3.5l-2.9-2.9H50C72.3,90.4,90.4,72.3,90.4,50z"/></g></g></switch><text x="0" y="115" fill="#000" font-family="'Helvetica Neue', Helvetica, Arial-Unicode, Arial, Sans-serif" font-size="5" font-weight="bold">Created by Adrien Coquet</text><text x="0" y="120" fill="#000" font-family="'Helvetica Neue', Helvetica, Arial-Unicode, Arial, Sans-serif" font-size="5" font-weight="bold">from the Noun Project</text></svg>