<svg xmlns="http://www.w3.org/2000/svg" xmlns:xlink="http://www.w3.org/1999/xlink" version="1.1" x="0px" y="0px" viewBox="0 0 66 82.5" enable-background="new 0 0 66 66" xml:space="preserve"><g><path d="M63.6,28.5l-19.2,9.1v-8.2c0-0.3-0.2-0.7-0.5-0.8c-0.3-0.2-0.7-0.2-1-0.1l-19.5,9.3L18.8,9.4c-0.1-0.5-0.5-0.8-1-0.8h-11   c-0.5,0-0.9,0.4-1,0.8C4.1,20.3,2.7,28.7,1,39.1c0,0.1,0,22.4,0,24.8c0,0.6,0.4,1,1,1h62c0.6,0,1-0.4,1-1V29.4   C65,28.7,64.2,28.2,63.6,28.5z M17,10.6l0.6,3.4H7.1l0.6-3.4H17z M6.8,16.1h11.1l3.6,22.2H3.2L6.8,16.1z M3,62.9V40.2h19.6   c0.4-0.1,0.3-0.1,0.4-0.1L42.3,31v8.2c0,0.3,0.2,0.7,0.5,0.8c0.3,0.2,0.7,0.2,1,0.1L63,31v31.9H3z"/><path d="M39.1,45.8H27.4c-0.6,0-1,0.4-1,1v5.7c0,0.6,0.4,1,1,1h11.7c0.6,0,1-0.4,1-1v-5.7C40.1,46.3,39.7,45.8,39.1,45.8z    M38.1,51.5h-9.7v-3.7h9.7V51.5z"/><path d="M19.5,45.8H7.8c-0.6,0-1,0.4-1,1v5.7c0,0.6,0.4,1,1,1h11.7c0.6,0,1-0.4,1-1v-5.7C20.5,46.3,20.1,45.8,19.5,45.8z    M18.5,51.5H8.8v-3.7h9.7V51.5z"/><path d="M58.7,45.8H47c-0.6,0-1,0.4-1,1v5.7c0,0.6,0.4,1,1,1h11.7c0.6,0,1-0.4,1-1v-5.7C59.7,46.3,59.3,45.8,58.7,45.8z M57.7,51.5   H48v-3.7h9.7V51.5z"/><path d="M12.3,6.4c0.6,0,1-0.4,1-1c0-1.3,1-2.3,2.3-2.3h10.8c0.6,0,1-0.4,1-1s-0.4-1-1-1H15.6c-2.4,0-4.3,1.9-4.3,4.3   C11.3,6,11.8,6.4,12.3,6.4z"/></g><text x="0" y="81" fill="#000000" font-size="5px" font-weight="bold" font-family="'Helvetica Neue', Helvetica, Arial-Unicode, Arial, Sans-serif">Created by ProSymbols</text><text x="0" y="86" fill="#000000" font-size="5px" font-weight="bold" font-family="'Helvetica Neue', Helvetica, Arial-Unicode, Arial, Sans-serif">from the Noun Project</text></svg>