<svg xmlns="http://www.w3.org/2000/svg" x="0" y="0" viewBox="0 0 24 30"><title>Artboard 25</title><g data-name="Layer 26"><path d="M20,18A1,1,0,0,1,19,19H19a1,1,0,0,1-1-.93A13,13,0,0,0,5,6,1,1,0,0,1,5,4,15,15,0,0,1,20,18ZM5,7A1,1,0,0,0,5,9a10,10,0,0,1,10,9.15,1,1,0,0,0,1,.92H16A1,1,0,0,0,17,18,12.07,12.07,0,0,0,5,7Zm0,3a1,1,0,0,0,0,2,7,7,0,0,1,7,6.2,1,1,0,0,0,1,.88h.11A1,1,0,0,0,13.94,18,9,9,0,0,0,5,10Zm0,3a1,1,0,0,0,0,2A4,4,0,0,1,9,18.37a1,1,0,0,0,1,.84h.15a1,1,0,0,0,.83-1.15A6,6,0,0,0,5,13Zm3,6a3,3,0,1,1-3-3A3,3,0,0,1,8,19ZM6,19a1,1,0,1,0-1,1A1,1,0,0,0,6,19Z"/></g><text x="0" y="39" fill="#000" font-family="'Helvetica Neue', Helvetica, Arial-Unicode, Arial, Sans-serif" font-size="5" font-weight="bold">Created by Jejen Juliansyah Nur Agung</text><text x="0" y="44" fill="#000" font-family="'Helvetica Neue', Helvetica, Arial-Unicode, Arial, Sans-serif" font-size="5" font-weight="bold">from the Noun Project</text></svg>