<svg xmlns="http://www.w3.org/2000/svg" xmlns:xlink="http://www.w3.org/1999/xlink" version="1.1" baseProfile="tiny" x="0px" y="0px" viewBox="0 0 24 30" overflow="scroll" xml:space="preserve"><rect x="9.75002" y="6.9821167" width="1.5" height="1.5"/><rect x="12.75002" y="6.9821167" width="1.5" height="1.5"/><path d="M20.9505215,16.1893921v-3.9230347c0.0003052-0.0084839,0.0048828-0.015625,0.0048828-0.0241699l-0.0048828-0.1240234  v-0.2539063c0-0.0351563-0.0158691-0.0653076-0.020752-0.0991821c-0.2504272-4.776123-4.1583862-8.5082397-8.9294443-8.5082397  c-2.2098389,0-4.2292476,0.807312-5.7919917,2.1412964V2.1416016c0-0.4140625-0.3359375-0.75-0.75-0.75s-0.75,0.3359375-0.75,0.75  v4.8408203c0,0.0122681,0.0064087,0.0224609,0.007019,0.0346069c-0.9566042,1.345459-1.5506594,2.9718628-1.6447756,4.741272  c-0.0053101,0.0360718-0.0214233,0.0683594-0.0214233,0.105957v0.2646484c0,0.0029297,0,0.0058594-0.0009766,0.0087891  c-0.0009766,0.0175781-0.0039063,0.0869141-0.0039063,0.1044922c0,0.0084839,0.0045776,0.0155029,0.0048828,0.0238647v3.9260254  c-1.3249511,0.2896729-2.3621826,1.4124146-2.5253906,2.8772583c-0.0126953,0.0957031-0.0234375,0.1923828-0.0234375,0.2919922  c0,1.7900391,1.4482422,3.2470703,3.2275391,3.2470703c1.6326907,0,2.9722292-1.2311401,3.1842654-2.8164063h10.1754761  c0.2120361,1.5852661,1.5515137,2.8164063,3.1842041,2.8164063c1.7802734,0,3.2285156-1.4570313,3.2285156-3.2470703  C23.5003262,17.8057251,22.4054165,16.5043335,20.9505215,16.1893921z M18.8330288,16.4754028  c-0.057251,0.0288696-0.1149292,0.0543213-0.170105,0.0865479c-0.1896973,0.1113892-0.3688965,0.2382813-0.5315552,0.3863525  c-0.0560303,0.0505371-0.1018677,0.1098022-0.1542358,0.1642456c-0.1019897,0.1068726-0.197998,0.2185669-0.2851563,0.3395996  c-0.0604248,0.083252-0.1165161,0.1672974-0.1690063,0.2565918c-0.0718384,0.1226196-0.131897,0.2528076-0.1882324,0.3861084  c-0.0286255,0.0679321-0.0719604,0.12677-0.0961304,0.1971436H6.7649741  c-0.0108643-0.0317383-0.0315552-0.0576782-0.043335-0.0889282c-0.0706787-0.1872559-0.1572876-0.3642578-0.2589722-0.5320435  c-0.0335083-0.0553589-0.0666504-0.109436-0.1032715-0.1624756c-0.1254272-0.1815186-0.2637939-0.3519897-0.4224243-0.5029907  c-0.0103149-0.0098267-0.0182495-0.0217896-0.0286865-0.0314331c-0.1691284-0.1567993-0.3590698-0.2883301-0.5588379-0.4055176  c-0.0567017-0.0333252-0.1150513-0.0614014-0.1738892-0.0912476c-0.1636963-0.0829468-0.3343506-0.151062-0.5126953-0.2052612  c-0.0394897-0.0120239-0.0736084-0.0350342-0.1137085-0.0455322v-3.6123047h14.9013672v3.6132813  c-0.0370483,0.0097656-0.0685425,0.0311279-0.1050415,0.0421753C19.1673183,16.3237915,18.9967251,16.3921509,18.8330288,16.4754028  z M12.0003252,4.7568359c3.7246094,0,6.8193369,2.7353516,7.3613291,6.3574219H4.638021  C5.1800132,7.4921875,8.2757158,4.7568359,12.0003252,4.7568359z M3.7278645,21.1083984  c-0.9521484,0-1.7275391-0.7841797-1.7167969-1.8417969c0-0.0048828,0.0117188-0.0947266,0.0117188-0.0996094  C2.1204426,18.2910156,2.8460286,17.625,3.704427,17.6171875c0.0029297,0,0.0068359,0,0.0097656,0  c0.0263672,0.0019531,0.0517578,0.0048828,0.0625,0.0048828c0.8486331,0.0244141,1.5439456,0.6621094,1.6621096,1.5888672  c0.0078125,0.0498047,0.0166016,0.0986328,0.0166016,0.1503906C5.4554038,20.3242188,4.6800132,21.1083984,3.7278645,21.1083984z   M20.2718105,21.1083984c-0.9521484,0-1.7275391-0.7841797-1.7158203-1.8457031c0,0,0.0029297-0.0244141,0.0058594-0.0527344  c0.0048828-0.0253906,0.0097656-0.0527344,0.0126953-0.0722656c0.0962524-0.7446899,0.6359253-1.3245239,1.3510742-1.4799194  c0.0964966-0.0199585,0.1956787-0.0327759,0.2973633-0.0357056c0.0054932-0.0001831,0.0099487-0.0032349,0.0153809-0.00354  c0.0037842-0.0001221,0.0072021-0.0012207,0.0109863-0.0013428c0.0185547,0,0.0390625-0.0009766,0.0595703-0.0029297  c0.9355469,0.0205078,1.6914063,0.7958984,1.6914063,1.7470703C22.0003262,20.3242188,21.2249355,21.1083984,20.2718105,21.1083984z  "/><text x="0" y="39" fill="#000000" font-size="5px" font-weight="bold" font-family="'Helvetica Neue', Helvetica, Arial-Unicode, Arial, Sans-serif">Created by Strongicon</text><text x="0" y="44" fill="#000000" font-size="5px" font-weight="bold" font-family="'Helvetica Neue', Helvetica, Arial-Unicode, Arial, Sans-serif">from the Noun Project</text></svg>