<svg xmlns="http://www.w3.org/2000/svg" xmlns:xlink="http://www.w3.org/1999/xlink" x="0" y="0" version="1.1" viewBox="0 0 100 125" xml:space="preserve" style="enable-background:new 0 0 100 100"><style type="text/css">.st0{fill:none}</style><rect width="100" height="100" class="st0"/><path d="M90.8,72.4c-0.3-4.5-4.2-7.9-8.7-7.6c-2,0.1-3.8,1-5.2,2.4l-13-7.5c1.1-2.6,1.4-5.5,0.8-8.4c-0.4-2.3-1.4-4.3-2.7-6.1 L74,33.1c1.6,1,3.6,1.4,5.6,1c2.1-0.4,4-1.6,5.2-3.4c1.2-1.8,1.7-4,1.3-6.1c-0.4-2.1-1.6-4-3.4-5.2c-1.8-1.2-4-1.7-6.1-1.3 c-2.1,0.4-4,1.6-5.2,3.4c-1.2,1.8-1.7,4-1.3,6.1c0.2,0.9,0.5,1.8,1,2.6L58.9,42.3c-0.2-0.1-0.4-0.3-0.6-0.4 c-1.9-1.3-4.1-2.1-6.3-2.4V22.3c1.8-0.5,3.5-1.6,4.7-3.3c1.2-1.8,1.7-4,1.3-6.1c-0.4-2.1-1.6-4-3.4-5.2c-1.8-1.2-4-1.7-6.1-1.3 c-2.1,0.4-4,1.6-5.2,3.4c-1.2,1.8-1.7,4-1.3,6.1c0.4,2.1,1.6,4,3.4,5.2c0.8,0.5,1.6,0.9,2.5,1.1v17.2c-2.5,0.3-4.8,1.3-6.8,2.8 L28.9,30.2c1-1.6,1.4-3.6,1-5.6c-0.4-2.1-1.6-4-3.4-5.2c-1.8-1.2-4-1.7-6.1-1.3c-2.1,0.4-4,1.6-5.2,3.4c-1.2,1.8-1.7,4-1.3,6.1 c0.4,2.1,1.6,4,3.4,5.2c1.8,1.2,4,1.7,6.1,1.3c0.9-0.2,1.8-0.5,2.6-1l12.1,12.1c-0.1,0.2-0.3,0.4-0.4,0.6c-2.2,3.3-3,7.2-2.3,11.1 c0.2,1,0.5,1.9,0.8,2.8l-13,7.5c-1.4-1.4-3.2-2.2-5.2-2.4c-4.5-0.3-8.4,3.1-8.7,7.6c-0.2,2.2,0.5,4.3,2,5.9c1.4,1.6,3.4,2.6,5.6,2.8 c0.2,0,0.4,0,0.6,0c2,0,3.8-0.7,5.3-2c1.6-1.4,2.6-3.4,2.8-5.6v0c0.1-0.9,0-1.9-0.3-2.7l13-7.5c0.9,1.2,2.1,2.3,3.4,3.1 c1.9,1.3,4,2.1,6.3,2.4v8.8c-1.9,0.5-3.6,1.7-4.7,3.3c-2.5,3.7-1.5,8.8,2.2,11.3c1.4,0.9,3,1.4,4.6,1.4c2.6,0,5.2-1.3,6.8-3.6 c2.5-3.7,1.5-8.8-2.2-11.3h0c-0.8-0.5-1.6-0.9-2.5-1.1v-8.8c0.2,0,0.5-0.1,0.7-0.1c3.6-0.7,6.7-2.6,8.9-5.4l13,7.5 c-0.2,0.9-0.3,1.8-0.3,2.7v0c0.3,4.3,3.9,7.6,8.1,7.6c0.2,0,0.4,0,0.6,0C87.7,80.8,91.1,76.9,90.8,72.4z M74.8,23.8 c0.6-0.9,1.5-1.5,2.6-1.7c1-0.2,2.1,0,3,0.6c0.2,0.1,0.4,0.3,0.6,0.5c0.6,0.6,0.9,1.3,1.1,2.1c0.2,1,0,2.1-0.6,3 c-0.6,0.9-1.5,1.5-2.6,1.7c-2.2,0.4-4.3-1-4.7-3.2C74,25.8,74.2,24.7,74.8,23.8z M46.1,15.2c-0.2-1,0-2.1,0.6-3 c0.6-0.9,1.5-1.5,2.6-1.7c0.3,0,0.5-0.1,0.8-0.1c0.8,0,1.6,0.2,2.2,0.7c0.9,0.6,1.5,1.5,1.7,2.6c0.2,1,0,2.1-0.6,3 c-1.2,1.8-3.7,2.3-5.5,1.1C46.9,17.1,46.3,16.2,46.1,15.2z M22.6,30c-1,0.2-2.1,0-3-0.6c-0.9-0.6-1.5-1.5-1.7-2.6 c-0.2-1,0-2.1,0.6-3c0.1-0.2,0.3-0.4,0.5-0.6c0.6-0.6,1.3-0.9,2.1-1.1c1-0.2,2.1,0,3,0.6c0.9,0.6,1.5,1.5,1.7,2.6 C26.2,27.5,24.8,29.6,22.6,30z M53.3,87.8c-1.2,1.8-3.7,2.3-5.5,1.1c-1.8-1.2-2.3-3.7-1.1-5.5c0.6-0.9,1.5-1.5,2.6-1.7 c0.3,0,0.5-0.1,0.8-0.1c0.8,0,1.6,0.2,2.2,0.7h0C54.1,83.5,54.5,86,53.3,87.8z M52,64.7c-2.8,0.5-5.7,0-8-1.6c-2.4-1.6-4-4-4.5-6.8 c-0.5-2.8,0-5.7,1.6-8c2.1-3,5.4-4.7,8.9-4.7c2.1,0,4.2,0.6,6,1.8c2.4,1.6,4,4,4.5,6.8c0.5,2.8,0,5.7-1.6,8 C57.3,62.5,54.8,64.1,52,64.7z"/><path d="M53.7,48.7c-3-2-7.2-1.3-9.2,1.8c-1,1.5-1.4,3.2-1,5c0.3,1.7,1.3,3.2,2.8,4.2c1.1,0.8,2.4,1.1,3.7,1.1c0.4,0,0.8,0,1.3-0.1 c1.7-0.3,3.2-1.3,4.2-2.8c1-1.5,1.4-3.2,1-5C56.2,51.2,55.2,49.7,53.7,48.7z"/><text x="0" y="115" fill="#000" font-family="'Helvetica Neue', Helvetica, Arial-Unicode, Arial, Sans-serif" font-size="5" font-weight="bold">Created by NeMaria</text><text x="0" y="120" fill="#000" font-family="'Helvetica Neue', Helvetica, Arial-Unicode, Arial, Sans-serif" font-size="5" font-weight="bold">from the Noun Project</text></svg>