<svg xmlns="http://www.w3.org/2000/svg" xmlns:xlink="http://www.w3.org/1999/xlink" version="1.1" x="0px" y="0px" viewBox="0 0 70 87.5" style="enable-background:new 0 0 70 70;" xml:space="preserve"><path d="M53.3740234,15.6259766H16.6259766c-0.5527344,0-1,0.4472656-1,1v36.7480469c0,0.5527344,0.4472656,1,1,1h36.7480469  c0.5527344,0,1-0.4472656,1-1V16.6259766C54.3740234,16.0732422,53.9267578,15.6259766,53.3740234,15.6259766z   M52.3740234,52.3740234H17.6259766V17.6259766h34.7480469V52.3740234z"/><path d="M67,18.3476562c0.5527344,0,1-0.4472656,1-1s-0.4472656-1-1-1h-6.4287109v-5.9189453c0-0.5527344-0.4472656-1-1-1  h-5.9189453V3c0-0.5527344-0.4472656-1-1-1s-1,0.4472656-1,1v6.4287109h-9.7685547V3c0-0.5527344-0.4472656-1-1-1s-1,0.4472656-1,1  v6.4287109h-9.7675781V3c0-0.5527344-0.4472656-1-1-1s-1,0.4472656-1,1v6.4287109h-9.7685547V3c0-0.5527344-0.4472656-1-1-1  s-1,0.4472656-1,1v6.4287109h-5.9189453c-0.5527344,0-1,0.4472656-1,1v5.9189453H3c-0.5527344,0-1,0.4472656-1,1s0.4472656,1,1,1  h6.4287109v9.7685547H3c-0.5527344,0-1,0.4472656-1,1s0.4472656,1,1,1h6.4287109v9.7675781H3c-0.5527344,0-1,0.4472656-1,1  s0.4472656,1,1,1h6.4287109v9.7685547H3c-0.5527344,0-1,0.4472656-1,1s0.4472656,1,1,1h6.4287109v5.9189453  c0,0.5527344,0.4472656,1,1,1h5.9189453V67c0,0.5527344,0.4472656,1,1,1s1-0.4472656,1-1v-6.4287109h9.7685547V67  c0,0.5527344,0.4472656,1,1,1s1-0.4472656,1-1v-6.4287109h9.7675781V67c0,0.5527344,0.4472656,1,1,1s1-0.4472656,1-1v-6.4287109  h9.7685547V67c0,0.5527344,0.4472656,1,1,1s1-0.4472656,1-1v-6.4287109h5.9189453c0.5527344,0,1-0.4472656,1-1v-5.9189453H67  c0.5527344,0,1-0.4472656,1-1s-0.4472656-1-1-1h-6.4287109v-9.7685547H67c0.5527344,0,1-0.4472656,1-1s-0.4472656-1-1-1h-6.4287109  v-9.7675781H67c0.5527344,0,1-0.4472656,1-1s-0.4472656-1-1-1h-6.4287109v-9.7685547H67z M58.5712891,58.5712891H11.4287109  V11.4287109h47.1425781V58.5712891z"/><path d="M25.7207031,29.0009766h18.5585938c0.5527344,0,1-0.4472656,1-1s-0.4472656-1-1-1H25.7207031c-0.5527344,0-1,0.4472656-1,1  S25.1679688,29.0009766,25.7207031,29.0009766z"/><path d="M25.7207031,36h18.5585938c0.5527344,0,1-0.4472656,1-1s-0.4472656-1-1-1H25.7207031c-0.5527344,0-1,0.4472656-1,1  S25.1679688,36,25.7207031,36z"/><path d="M25.7207031,42.9990234h18.5585938c0.5527344,0,1-0.4472656,1-1s-0.4472656-1-1-1H25.7207031c-0.5527344,0-1,0.4472656-1,1  S25.1679688,42.9990234,25.7207031,42.9990234z"/><text x="0" y="85" fill="#000000" font-size="5px" font-weight="bold" font-family="'Helvetica Neue', Helvetica, Arial-Unicode, Arial, Sans-serif">Created by rivercon</text><text x="0" y="90" fill="#000000" font-size="5px" font-weight="bold" font-family="'Helvetica Neue', Helvetica, Arial-Unicode, Arial, Sans-serif">from the Noun Project</text></svg>