<svg xmlns:dc="http://purl.org/dc/elements/1.1/" xmlns:cc="http://creativecommons.org/ns#" xmlns:rdf="http://www.w3.org/1999/02/22-rdf-syntax-ns#" xmlns:svg="http://www.w3.org/2000/svg" xmlns="http://www.w3.org/2000/svg" version="1.1" viewBox="0 0 16.933334 21.166665000000002" x="0px" y="0px"><g transform="translate(0,-118.53333)" style="" display="inline"><path transform="matrix(0.26458333,0,0,0.26458333,0,118.53333)" d="M 10.998047 11.001953 L 10.998047 52.998047 L 53.001953 52.998047 L 53.001953 11.001953 L 42.5 11.001953 L 33.001953 11.001953 L 32.001953 11.001953 L 22 11.001953 L 21.001953 11.001953 L 10.998047 11.001953 z M 12.998047 13.001953 L 21.001953 13.001953 L 22 13.001953 L 32.001953 13.001953 L 33.001953 13.001953 L 41.5 13.001953 L 51.001953 13.001953 L 51.001953 50.998047 L 12.998047 50.998047 L 12.998047 13.001953 z M 17 16.996094 L 17 29 L 29.003906 29 L 29.003906 16.996094 L 17 16.996094 z M 40.998047 16.996094 C 37.696176 16.996094 35.003906 19.696214 35.003906 22.998047 C 35.003906 26.299918 37.696176 29 40.998047 29 C 44.29988 29 47 26.299918 47 22.998047 C 47 19.696214 44.29988 16.996094 40.998047 16.996094 z M 19 18.996094 L 27.001953 18.996094 L 27.001953 26.998047 L 19 26.998047 L 19 18.996094 z M 40.998047 18.996094 C 43.219011 18.996094 45 20.777083 45 22.998047 C 45 25.219011 43.219011 26.998047 40.998047 26.998047 C 38.777045 26.998047 36.998047 25.219011 36.998047 22.998047 C 36.998047 20.777083 38.777045 18.996094 40.998047 18.996094 z M 34.294922 34.292969 L 34.294922 47.705078 L 47.708984 47.705078 L 34.294922 34.292969 z M 23.001953 35 C 19.700082 35 17 37.70012 17 41.001953 C 17 44.303824 19.700082 46.996094 23.001953 46.996094 C 26.303786 46.996094 29.003906 44.303824 29.003906 41.001953 C 29.003906 37.70012 26.303786 35 23.001953 35 z M 23.001953 37.001953 C 25.222917 37.001953 27.001953 38.780989 27.001953 41.001953 C 27.001953 43.222955 25.222917 44.996094 23.001953 44.996094 C 20.780952 44.996094 19 43.222955 19 41.001953 C 19 38.780989 20.780952 37.001953 23.001953 37.001953 z M 36.296875 39.126953 L 42.873047 45.705078 L 36.296875 45.705078 L 36.296875 39.126953 z " style="color:#000000;font-style:normal;font-variant:normal;font-weight:normal;font-stretch:normal;font-size:medium;line-height:normal;font-family:sans-serif;font-variant-ligatures:normal;font-variant-position:normal;font-variant-caps:normal;font-variant-numeric:normal;font-variant-alternates:normal;font-feature-settings:normal;text-indent:0;text-align:start;text-decoration:none;text-decoration-line:none;text-decoration-style:solid;text-decoration-color:#000000;letter-spacing:normal;word-spacing:normal;text-transform:none;writing-mode:lr-tb;direction:ltr;text-orientation:mixed;dominant-baseline:auto;baseline-shift:baseline;text-anchor:start;white-space:normal;shape-padding:0;clip-rule:nonzero;display:inline;overflow:visible;visibility:visible;opacity:1;isolation:auto;mix-blend-mode:normal;color-interpolation:sRGB;color-interpolation-filters:linearRGB;solid-color:#000000;solid-opacity:1;vector-effect:none;fill:#000000;fill-opacity:1;fill-rule:evenodd;stroke:none;stroke-width:2.00000024;stroke-linecap:square;stroke-linejoin:miter;stroke-miterlimit:4;stroke-dasharray:none;stroke-dashoffset:0;stroke-opacity:1;paint-order:fill markers stroke;color-rendering:auto;image-rendering:auto;shape-rendering:auto;text-rendering:auto;enable-background:accumulate"/></g><text x="0" y="31.933332" fill="#000000" font-size="5px" font-weight="bold" font-family="'Helvetica Neue', Helvetica, Arial-Unicode, Arial, Sans-serif">Created by Sidiq Fathurochman</text><text x="0" y="36.933332" fill="#000000" font-size="5px" font-weight="bold" font-family="'Helvetica Neue', Helvetica, Arial-Unicode, Arial, Sans-serif">from the Noun Project</text></svg>