<svg xmlns="http://www.w3.org/2000/svg" x="0" y="0" viewBox="0 0 64 80"><g data-name="random access memory"><path d="M61.505,25.133A1,1,0,0,0,62,24.27V21a1,1,0,0,0-1-1H3a1,1,0,0,0-1,1v3.27a1,1,0,0,0,.5.863,1,1,0,0,1,0,1.734,1,1,0,0,0-.5.863V43a1,1,0,0,0,1,1H61a1,1,0,0,0,1-1V27.73a1,1,0,0,0-.495-.863,1,1,0,0,1,0-1.734ZM4,23.765V22H60v1.765a3,3,0,0,0,0,4.47V38H4V28.235a3,3,0,0,0,0-4.47ZM11,40v2H9V40Zm2,0h2v2H13Zm4,0h2v2H17Zm4,0h2v2H21Zm4,0h2v2H25Zm4,0h2v2H29Zm4,0h2v2H33Zm4,0h2v2H37Zm4,0h2v2H41Zm4,0h2v2H45Zm4,0h2v2H49Zm4,0h2v2H53ZM4,40H7v2H4Zm53,2V40h3v2Z"/><path d="M9,36h6a1,1,0,0,0,1-1V25a1,1,0,0,0-1-1H9a1,1,0,0,0-1,1V35A1,1,0,0,0,9,36Zm1-10h4v8H10Z"/><path d="M19,36h6a1,1,0,0,0,1-1V25a1,1,0,0,0-1-1H19a1,1,0,0,0-1,1V35A1,1,0,0,0,19,36Zm1-10h4v8H20Z"/><path d="M29,36h6a1,1,0,0,0,1-1V25a1,1,0,0,0-1-1H29a1,1,0,0,0-1,1V35A1,1,0,0,0,29,36Zm1-10h4v8H30Z"/><path d="M39,36h6a1,1,0,0,0,1-1V25a1,1,0,0,0-1-1H39a1,1,0,0,0-1,1V35A1,1,0,0,0,39,36Zm1-10h4v8H40Z"/><path d="M49,36h6a1,1,0,0,0,1-1V25a1,1,0,0,0-1-1H49a1,1,0,0,0-1,1V35A1,1,0,0,0,49,36Zm1-10h4v8H50Z"/></g><text x="0" y="79" fill="#000" font-family="'Helvetica Neue', Helvetica, Arial-Unicode, Arial, Sans-serif" font-size="5" font-weight="bold">Created by ic2icon</text><text x="0" y="84" fill="#000" font-family="'Helvetica Neue', Helvetica, Arial-Unicode, Arial, Sans-serif" font-size="5" font-weight="bold">from the Noun Project</text></svg>