<svg xmlns="http://www.w3.org/2000/svg" xmlns:xlink="http://www.w3.org/1999/xlink" x="0" y="0" version="1.1" viewBox="0 0 64 80" xml:space="preserve" style="enable-background:new 0 0 64 64"><path d="M9,15c2.97223,0,5.43304-2.16339,5.91003-5h11.6759l-1.29297,1.29297l1.41406,1.41406L30.41406,9l-3.70703-3.70703 l-1.41406,1.41406L26.58594,8h-11.6759C14.43304,5.16339,11.97223,3,9,3C5.68628,3,3,5.68628,3,9S5.68628,15,9,15z"/><path d="M49.5,8h-6.58997C42.43304,5.16339,39.97223,3,37,3c-3.31372,0-6,2.68628-6,6s2.68628,6,6,6 c2.97223,0,5.43304-2.16339,5.91003-5H49.5C55.29004,10,60,14.71045,60,20.5S55.29004,31,49.5,31H33.41406l1.29297-1.29297 l-1.41406-1.41406L29.58594,32l3.70703,3.70703l1.41406-1.41406L33.41406,33H49.5C56.39258,33,62,27.39258,62,20.5 S56.39258,8,49.5,8z"/><circle cx="55" cy="55" r="6"/><path d="M27,49c-3.31372,0-6,2.68628-6,6s2.68628,6,6,6c2.97223,0,5.43304-2.16339,5.91003-5h11.6759l-1.29297,1.29297 l1.41406,1.41406L48.41406,55l-3.70703-3.70703l-1.41406,1.41406L44.58594,54h-11.6759C32.43304,51.16339,29.97223,49,27,49z"/><path d="M14.5,56h2.08594l-1.29297,1.29297l1.41406,1.41406L20.41406,55l-3.70703-3.70703l-1.41406,1.41406L16.58594,54H14.5 C8.70996,54,4,49.28955,4,43.5S8.70996,33,14.5,33h2.58997c0.47699,2.83661,2.93781,5,5.91003,5c3.31372,0,6-2.68628,6-6 s-2.68628-6-6-6c-2.97223,0-5.43304,2.16339-5.91003,5H14.5C7.60742,31,2,36.60742,2,43.5S7.60742,56,14.5,56z"/><text x="0" y="79" fill="#000" font-family="'Helvetica Neue', Helvetica, Arial-Unicode, Arial, Sans-serif" font-size="5" font-weight="bold">Created by Becris</text><text x="0" y="84" fill="#000" font-family="'Helvetica Neue', Helvetica, Arial-Unicode, Arial, Sans-serif" font-size="5" font-weight="bold">from the Noun Project</text></svg>